<?xml version="1.0" encoding="UTF-8"?>
<svg id="Layer_1" data-name="Layer 1" xmlns="http://www.w3.org/2000/svg" xmlns:xlink="http://www.w3.org/1999/xlink" viewBox="0 0 500 500">
  <defs>
    <style>
      .cls-1 {
        fill: url(#linear-gradient);
      }
    </style>
    <linearGradient id="linear-gradient" x1="-106.21" y1="547.67" x2="416.49" y2="155.33" gradientUnits="userSpaceOnUse">
      <stop offset="0" stop-color="#000"/>
      <stop offset=".24" stop-color="#240c42"/>
      <stop offset=".57" stop-color="#531c9b"/>
      <stop offset=".81" stop-color="#7126d2"/>
      <stop offset=".92" stop-color="#7d2ae8"/>
    </linearGradient>
  </defs>
  <path class="cls-1" d="M492.51,365.36c-14.62,26.57-44.71,43.86-75.04,43.12-20.04-.48-39.59-8.85-54.38-22.3-4.82-4.4-9.15-9.35-12.82-14.75-3.75-5.51-5.86-10.85-7.75-17.2-.93-3.06-1.8-6.12-2.63-9.2-1.67-6.18-3.17-12.39-4.53-18.63-2.69-12.49-4.75-25.12-6.18-37.83-2.02-18.27-2.71-36.72-2.02-55.1-25.23,49.11-50.46,98.24-75.69,147.34-4.58,8.94-10.26,18.78-19.98,21.3-.22,.06-.46,.11-.69,.15-1.32,.3-2.62,.45-3.9,.45-11.34,.06-21.39-10.35-27.87-20.46-9.07-14.21-15.96-29.41-21.22-45.23-3.01-8.94-5.47-18.11-7.55-27.4-5.03-22.26-7.75-45.31-9.78-68.29-.76-8.85-1.43-17.7-2.08-26.49-14.42,25.97-25.75,53.65-38.09,80.74-10.69,23.49-22.11,46.51-36.98,67.57-10.07,14.3-22.28,28.03-38.5,34.64-8.94,3.65-18.83,4.95-28.4,3.75-3.14-.41-6.62-1.32-8.16-4.08-2-3.54,.26-7.88,2.47-11.3,45.32-70.18,85.9-143.45,121.31-219.12,.87-1.86,.37-4.12-1.3-5.31l-.02-.02c-10.59-5.66-22.99-7.03-34.67-3.58,12.95-9.89,28.74-14.12,44.15-12.65,11.93,1.11,23.62,5.64,33.6,13.56-8.98-9.54-20.82-15.58-33.64-17.33-2.95-.41-5.97-.58-9.02-.5-15.96,.11-30.96,7.33-41.69,19.41,8.63-16.75,23.99-28.2,41.37-32.39,11.11-2.67,23.06-2.39,34.6,1.37-10.37-5.4-22.21-7.24-33.73-5.62-4.45,.63-8.87,1.78-13.12,3.45-15.49,6.2-27.25,18.78-32.45,34.43,1.54-33.17,24.32-61.59,56.81-69.94,31.43-3.28,61.67,14.19,74.86,43.43,1.87,4.56,3.28,9.09,4.21,13.54,.33,1.63,.71,3.25,1.21,4.82,.17,.54,.33,1.08,.5,1.61,13.64,44.84,11.6,93.8,29.2,137.25,20.48-43.08,40.95-86.16,61.43-129.24,6.09-12.82,12.56-26.12,23.73-34.88,.06-.06,.13-.09,.19-.13,5.21-4.06,11.08-6.86,17.29-8.81,11.95-3.75,25.23-4.4,37.88-4.84,1.5-.06,3.06-.09,4.56,.04,2.37,.17,4.64,.7,6.47,2.15,4.16,3.23,4.3,9.35,4.06,14.6-1,22.37-2.04,44.97-1.91,67.48,.17,36.23,3.32,72.21,14.32,106.6,1.89,5.96,5.27,12.82,11.5,13.3,6.83,.52,11.21-7.09,12.95-13.71,3.62-13.88,3.32-28.76-.83-42.49,19.07,15.29,29.39,40.82,26.27,65.05,4.04-6.16,6.49-13.36,7.03-20.7,9.98,22.84,7.53,50.65-6.27,71.39,6.96-4.32,13.93-8.66,20.89-13.01Z"/>
</svg>